<svg width="267" height="38" viewBox="0 0 267 38" fill="none" xmlns="http://www.w3.org/2000/svg">
<path d="M196.001 13.5775C196.076 13.5775 196.228 13.5016 196.228 13.3499V10.0883C196.228 10.0125 196.152 9.86075 196.001 9.86075H181.437C181.209 9.86075 180.906 9.9366 180.754 10.0125C180.527 10.0883 180.375 10.24 180.223 10.3917C180.072 10.5434 179.92 10.771 179.844 10.9227C179.768 11.1502 179.692 11.3778 179.692 11.6053V23.2865C179.692 24.045 179.844 24.8035 180.148 25.4862C180.679 26.624 181.665 27.3825 182.878 27.7618C183.409 27.9135 183.864 27.9893 184.395 27.9893H196.076C196.152 27.9893 196.304 27.9135 196.304 27.7618V24.576C196.304 24.5001 196.228 24.3484 196.076 24.3484H184.471C183.94 24.4243 183.409 24.045 183.333 23.5141C183.333 23.4382 183.333 23.3624 183.333 23.2865V20.7075H194.635C194.711 20.7075 194.863 20.6317 194.863 20.48V17.2184C194.863 17.1425 194.787 16.9908 194.635 16.9908H183.333V13.2741L196.001 13.5775Z" fill="white"/>
<path d="M120.453 28.2168C120.377 28.2168 120.225 28.141 120.225 27.9893V20.8592H109.227V27.9893C109.227 28.0651 109.151 28.2168 108.999 28.2168H105.737C105.662 28.2168 105.51 28.141 105.51 27.9893V10.1641C105.51 10.0883 105.586 9.93658 105.737 9.93658H108.999C109.075 9.93658 109.227 10.0124 109.227 10.1641V17.2942H120.225V10.1641C120.225 10.0883 120.301 9.93658 120.453 9.93658H123.714C123.79 9.93658 123.942 10.0124 123.942 10.1641V27.9893C123.942 28.0651 123.866 28.2168 123.714 28.2168H120.453Z" fill="white"/>
<path d="M165.28 28.4443C164.977 28.4443 164.673 28.3685 164.446 28.2168C164.218 28.0651 163.915 27.8375 163.763 27.5341L158.378 18.0527V27.9892C158.378 28.0651 158.302 28.2168 158.15 28.2168H154.889C154.813 28.2168 154.661 28.1409 154.661 27.9892V11.5294C154.661 10.695 155.192 10.0124 155.951 9.78482C156.102 9.70897 156.254 9.70897 156.406 9.70897H156.557C156.785 9.70897 156.937 9.78482 157.088 9.86068C157.316 9.93653 157.468 10.0124 157.619 10.1641C157.771 10.3158 157.847 10.4675 157.999 10.6192L165.204 23.1347L172.41 10.6192C172.638 10.2399 172.941 10.0124 173.245 9.86068C173.472 9.78482 173.7 9.70897 173.927 9.70897C174.079 9.70897 174.307 9.70897 174.458 9.78482C174.838 9.86068 175.141 10.1641 175.444 10.4675C175.672 10.7709 175.824 11.1502 175.824 11.6053V28.0651C175.824 28.1409 175.748 28.2926 175.596 28.2926H172.334C172.259 28.2926 172.107 28.2168 172.107 28.0651V18.0527L166.721 27.5341C166.57 27.8375 166.342 28.0651 166.039 28.2168C165.963 28.3685 165.66 28.4443 165.28 28.4443Z" fill="white"/>
<path d="M200.248 28.2168C200.172 28.2168 200.02 28.141 200.02 27.9893V24.7277C200.02 24.6518 200.096 24.5001 200.248 24.5001H212.081C212.612 24.576 213.067 24.3484 213.37 23.9691C213.674 23.5899 213.901 23.1348 213.825 22.6038C213.825 22.3763 213.75 22.0729 213.674 21.8453C213.598 21.6177 213.446 21.466 213.295 21.3143C213.143 21.1626 212.915 21.0109 212.764 20.9351C212.536 20.8592 212.233 20.7834 212.005 20.7834H205.178C204.572 20.7834 204.041 20.7075 203.434 20.48C202.068 20.1007 200.931 19.1905 200.324 17.901C199.945 17.0666 199.793 16.2323 199.793 15.3979C199.793 14.5635 199.945 13.6533 200.324 12.8948C200.931 11.6053 202.068 10.6951 203.434 10.24C203.965 10.0124 204.572 9.93658 205.178 9.93658H216.177C216.253 9.93658 216.404 10.0124 216.404 10.1641V13.4258C216.404 13.5016 216.329 13.6533 216.177 13.6533H205.178C204.647 13.5775 204.192 13.805 203.889 14.1843C203.51 14.5635 203.358 15.0186 203.434 15.5496C203.358 16.0806 203.585 16.5357 203.889 16.9149C204.268 17.2942 204.723 17.4459 205.178 17.4459H212.005C212.384 17.4459 212.839 17.5218 213.143 17.5976C213.977 17.8252 214.812 18.2044 215.494 18.7354C215.873 19.0388 216.177 19.418 216.48 19.7214C216.784 20.1007 217.011 20.6317 217.163 21.1626C217.315 21.6936 217.391 22.3004 217.391 22.9072C217.391 23.514 217.315 24.1208 217.163 24.6518C217.011 25.1828 216.784 25.6379 216.48 26.093C216.253 26.4723 215.873 26.8515 215.494 27.1549C215.115 27.3825 214.736 27.6859 214.356 27.8376C213.598 28.2168 212.839 28.3685 212.005 28.3685L200.248 28.2168Z" fill="white"/>
<path d="M135.547 28.2168L135.395 28.0651V24.7276L135.547 24.5759H146.242C146.318 24.5759 146.47 24.5001 146.47 24.4242V15.3979L146.394 15.2462L139.416 8.2678L139.264 8.19195L139.112 8.2678L132.134 15.2462L132.058 15.3979V28.0651L131.906 28.2168H128.493L128.417 28.0651V13.8808L128.493 13.805L138.43 3.8684C138.657 3.64085 138.961 3.48914 139.264 3.48914C139.567 3.48914 139.871 3.64085 140.022 3.8684C140.553 4.39936 149.883 13.7291 149.959 13.805L150.035 13.8808V28.0651L149.959 28.2168H135.547Z" fill="white"/>
<path d="M47.6346 28.2168C47.2554 28.2168 46.952 28.141 46.6486 28.141C46.2693 28.0651 45.9659 27.9134 45.5866 27.7617C45.2074 27.61 44.904 27.3825 44.6006 27.1549C44.2972 26.9273 43.9937 26.6239 43.7662 26.2447C43.5386 25.8654 43.3111 25.4103 43.1594 25.0311C43.0077 24.5001 42.9318 24.045 42.9318 23.4382V14.7152C42.9318 14.336 43.0077 14.0326 43.0077 13.7292C43.0835 13.3499 43.2352 13.0465 43.3869 12.6672C43.5386 12.288 43.7662 11.9846 43.9937 11.6812C44.2213 11.3777 44.5247 11.0743 44.904 10.8468C45.2832 10.6192 45.6625 10.3917 46.1176 10.24C46.6486 10.0883 47.1037 10.0124 47.7105 10.0124H59.3916C59.4675 10.0124 59.6192 10.0883 59.6192 10.24V13.5016C59.6192 13.5774 59.5434 13.7292 59.3916 13.7292H47.7105C47.4071 13.7292 47.1037 13.805 46.8761 14.0326C46.6486 14.2601 46.5727 14.5635 46.5727 14.8669V23.514C46.4969 24.045 46.952 24.5759 47.4829 24.6518C47.5588 24.6518 47.6346 24.6518 47.7105 24.6518H59.3916C59.4675 24.6518 59.6192 24.7276 59.6192 24.8794V28.0651C59.6192 28.141 59.5434 28.2927 59.3916 28.2927L47.6346 28.2168Z" fill="white"/>
<path d="M79.6437 13.5775C79.7196 13.5775 79.8713 13.5016 79.8713 13.3499V10.0883C79.8713 10.0125 79.7955 9.86075 79.6437 9.86075H65.0802C64.8527 9.86075 64.5493 9.9366 64.3976 10.0125C64.17 10.0883 64.0183 10.24 63.8666 10.3917C63.7149 10.5434 63.5632 10.771 63.4873 10.9227C63.4115 11.1502 63.3356 11.3778 63.3356 11.6053V23.2865C63.3356 24.045 63.4873 24.8035 63.7907 25.4862C64.3217 26.624 65.3078 27.3825 66.5214 27.7618C67.0524 27.9135 67.5075 27.9893 68.0384 27.9893H79.6437C79.7196 27.9893 79.8713 27.9135 79.8713 27.7618V24.576C79.8713 24.5001 79.7955 24.3484 79.6437 24.3484H67.9626C67.4316 24.4243 66.9007 24.045 66.8248 23.5141C66.8248 23.4382 66.8248 23.3624 66.8248 23.2865V20.7075H78.1267C78.2026 20.7075 78.3543 20.6317 78.3543 20.48V17.2184C78.3543 17.1425 78.2784 16.9908 78.1267 16.9908H66.9007V13.2741L79.6437 13.5775Z" fill="white"/>
<path d="M100.048 28.4443C99.8208 28.4443 99.5933 28.3685 99.3657 28.3685C99.1382 28.2926 98.9106 28.1409 98.7589 27.9892L87.2294 15.853V27.9892C87.2294 28.0651 87.1536 28.2168 87.0777 28.2168H83.8161C83.7403 28.2168 83.5886 28.1409 83.5886 28.0651V11.5294C83.5886 11.1502 83.6644 10.8467 83.892 10.5433C84.1195 10.2399 84.3471 10.0124 84.7263 9.86068C84.9539 9.78482 85.1814 9.70897 85.409 9.70897C85.94 9.70897 86.3951 9.93653 86.6985 10.2399L98.1521 22.2245V10.0882C98.1521 10.0124 98.2279 9.86068 98.3796 9.86068H101.641C101.717 9.86068 101.869 9.93653 101.869 10.0124V26.5481C101.869 26.7756 101.793 27.079 101.717 27.2307C101.641 27.4583 101.49 27.61 101.338 27.7617C101.186 27.9134 100.959 28.0651 100.807 28.1409C100.503 28.3685 100.276 28.4443 100.048 28.4443Z" fill="white"/>
<path d="M0 18.8871L17.5976 36.5605C21.0109 31.7819 22.0728 26.4723 20.1766 21.9212C17.6734 16.0047 12.5914 11.757 14.1084 4.70281C6.7508 12.2121 0 18.8871 0 18.8871Z" fill="white"/>
<path d="M18.6588 14.1843C19.8725 16.8391 28.6713 26.5481 19.3415 38.0017L38.4561 18.9629L19.3415 0C19.3415 0 13.0458 4.77866 18.6588 14.1843Z" fill="white"/>
<path d="M264.494 28.4443C264.266 28.4443 264.039 28.3685 263.811 28.3685C263.584 28.2926 263.356 28.1409 263.204 27.9892L251.751 15.9288V28.0651C251.751 28.1409 251.675 28.2926 251.523 28.2926H248.262C248.186 28.2926 248.034 28.2168 248.034 28.0651V11.5294C248.034 11.1502 248.11 10.8467 248.337 10.5433C248.565 10.2399 248.793 10.0124 249.172 9.86068C249.399 9.78482 249.627 9.70897 249.855 9.70897C249.93 9.70897 250.082 9.70897 250.234 9.78482C250.613 9.86068 250.916 10.0124 251.144 10.3158L262.598 22.3004V10.1641C262.598 10.0882 262.673 9.93653 262.749 9.93653H266.011C266.087 9.93653 266.238 10.0124 266.238 10.1641V26.6239C266.238 26.8515 266.163 27.1549 266.087 27.3066C265.859 27.7617 265.556 28.0651 265.101 28.2926C264.949 28.3685 264.721 28.4443 264.494 28.4443Z" fill="white"/>
<path d="M244.09 11.5294C244.09 10.695 243.559 10.0124 242.801 9.78482C242.649 9.70897 242.497 9.70897 242.27 9.70897C242.042 9.70897 241.815 9.78482 241.587 9.86068C241.208 10.0124 240.904 10.2399 240.753 10.6192L233.547 23.1347L226.341 10.6192C226.265 10.4675 226.113 10.3158 225.962 10.1641C225.81 10.0882 225.658 9.93653 225.431 9.86068C225.203 9.78482 225.051 9.78482 224.9 9.78482H224.748C224.596 9.78482 224.445 9.78482 224.293 9.86068C223.914 9.93653 223.61 10.2399 223.307 10.5433C223.079 10.8467 222.928 11.226 222.928 11.6053C222.928 11.757 222.928 11.8328 223.003 11.9845L226.569 18.2044V18.1285L231.954 27.61C232.106 27.8375 232.333 28.1409 232.637 28.2926C232.864 28.4443 233.168 28.5202 233.471 28.5202C233.774 28.5202 234.078 28.4443 234.381 28.2926C234.609 28.1409 234.912 27.9134 235.064 27.61L235.595 26.6998L244.014 11.757C244.09 11.6811 244.09 11.6053 244.09 11.5294Z" fill="white"/>
<path d="M226.796 24.5759H223.079C223.004 24.5759 222.852 24.6517 222.852 24.7276V27.9892C222.852 28.0651 222.928 28.2168 223.079 28.2168H226.796V24.5759Z" fill="white"/>
</svg>
